<svg xmlns="http://www.w3.org/2000/svg" viewBox="0 0 512 512" role="img" aria-labelledby="title desc">
  <title id="title">ORVÉN mark</title>
  <desc id="desc">A refined O monogram inside a brass watch bezel</desc>
  <rect width="512" height="512" rx="112" fill="#111517"/>
  <circle cx="256" cy="256" r="190" fill="none" stroke="#b99a63" stroke-width="3"/>
  <circle cx="256" cy="256" r="166" fill="none" stroke="#b99a63" stroke-opacity=".28" stroke-width="2"/>
  <path d="M256 146c-54 0-95 44-95 110s41 110 95 110 95-44 95-110-41-110-95-110Zm0 35c34 0 58 29 58 75s-24 75-58 75-58-29-58-75 24-75 58-75Z" fill="#ead8ae"/>
  <path d="M256 84v20M256 408v20M84 256h20M408 256h20" stroke="#b99a63" stroke-width="4" stroke-linecap="round"/>
  <circle cx="256" cy="256" r="8" fill="#b99a63"/>
</svg>
